<svg width="26" height="26" viewBox="0 0 26 26" fill="none" xmlns="http://www.w3.org/2000/svg">
<path d="M24.8182 17.8405H22.2418C22.3794 17.4319 22.4513 17.0009 22.4545 16.5662V10.1946C22.4545 9.18066 22.081 8.20828 21.4161 7.49133C20.7512 6.77439 19.8494 6.37161 18.9091 6.37161H11.8182C10.8779 6.37161 9.97607 6.77439 9.31117 7.49133C8.64626 8.20828 8.27273 9.18066 8.27273 10.1946V16.5662C8.27592 17.0009 8.34786 17.4319 8.48545 17.8405H7.09091C6.77747 17.8405 6.47687 17.7063 6.25524 17.4673C6.0336 17.2283 5.90909 16.9042 5.90909 16.5662V3.82297C5.90909 2.80905 5.53555 1.83667 4.87065 1.11972C4.20575 0.402776 3.30395 0 2.36364 0H1.18182C0.86838 0 0.56778 0.134259 0.346146 0.37324C0.124513 0.612222 0 0.936351 0 1.27432C0 1.61229 0.124513 1.93642 0.346146 2.1754C0.56778 2.41439 0.86838 2.54864 1.18182 2.54864H2.36364C2.67707 2.54864 2.97767 2.6829 3.19931 2.92188C3.42094 3.16087 3.54545 3.485 3.54545 3.82297V16.5662C3.54981 17.4033 3.80886 18.2157 4.28282 18.8787C4.75678 19.5417 5.41945 20.0186 6.16909 20.2362C5.95144 20.8104 5.86661 21.433 5.92193 22.0504C5.97725 22.6678 6.17105 23.2614 6.48661 23.7799C6.80217 24.2985 7.23002 24.7266 7.73323 25.0271C8.23644 25.3276 8.7999 25.4915 9.375 25.5048C9.9501 25.5181 10.5196 25.3803 11.0342 25.1033C11.5489 24.8263 11.9934 24.4185 12.3293 23.9149C12.6651 23.4114 12.8823 22.8273 12.9621 22.213C13.0419 21.5988 12.9819 20.9728 12.7873 20.3892H16.7582C16.5638 20.9666 16.5014 21.586 16.5761 22.195C16.6508 22.804 16.8606 23.3846 17.1876 23.8876C17.5145 24.3907 17.9491 24.8013 18.4545 25.0849C18.9599 25.3684 19.5212 25.5164 20.0909 25.5164C20.6606 25.5164 21.2219 25.3684 21.7273 25.0849C22.2327 24.8013 22.6673 24.3907 22.9943 23.8876C23.3212 23.3846 23.531 22.804 23.6057 22.195C23.6805 21.586 23.618 20.9666 23.4236 20.3892H24.8182C25.1316 20.3892 25.4322 20.2549 25.6539 20.0159C25.8755 19.7769 26 19.4528 26 19.1148C26 18.7769 25.8755 18.4527 25.6539 18.2137C25.4322 17.9748 25.1316 17.8405 24.8182 17.8405ZM9.45455 22.9378C9.2208 22.9378 8.99231 22.8631 8.79796 22.723C8.60361 22.583 8.45214 22.384 8.36269 22.1511C8.27324 21.9183 8.24983 21.6621 8.29543 21.4149C8.34104 21.1677 8.45359 20.9406 8.61887 20.7624C8.78415 20.5842 8.99473 20.4628 9.22398 20.4136C9.45323 20.3645 9.69086 20.3897 9.90681 20.4862C10.1228 20.5826 10.3073 20.7459 10.4372 20.9555C10.5671 21.1651 10.6364 21.4114 10.6364 21.6635C10.6364 22.0014 10.5119 22.3256 10.2902 22.5646C10.0686 22.8035 9.76798 22.9378 9.45455 22.9378ZM11.8182 17.8405C11.5047 17.8405 11.2041 17.7063 10.9825 17.4673C10.7609 17.2283 10.6364 16.9042 10.6364 16.5662V10.1946C10.6364 9.85661 10.7609 9.53248 10.9825 9.2935C11.2041 9.05451 11.5047 8.92025 11.8182 8.92025H18.9091C19.2225 8.92025 19.5231 9.05451 19.7448 9.2935C19.9664 9.53248 20.0909 9.85661 20.0909 10.1946V16.5662C20.0909 16.9042 19.9664 17.2283 19.7448 17.4673C19.5231 17.7063 19.2225 17.8405 18.9091 17.8405H11.8182ZM20.0909 22.9378C19.8572 22.9378 19.6287 22.8631 19.4343 22.723C19.24 22.583 19.0885 22.384 18.9991 22.1511C18.9096 21.9183 18.8862 21.6621 18.9318 21.4149C18.9774 21.1677 19.09 20.9406 19.2552 20.7624C19.4205 20.5842 19.6311 20.4628 19.8603 20.4136C20.0896 20.3645 20.3272 20.3897 20.5432 20.4862C20.7591 20.5826 20.9437 20.7459 21.0736 20.9555C21.2034 21.1651 21.2727 21.4114 21.2727 21.6635C21.2727 22.0014 21.1482 22.3256 20.9266 22.5646C20.7049 22.8035 20.4043 22.9378 20.0909 22.9378Z" fill="#507CFF"/>
</svg>
